<svg width="35" height="35" viewBox="0 0 35 35" fill="none" xmlns="http://www.w3.org/2000/svg">
<path d="M17.2942 2.84302C9.44285 2.84302 3.07849 9.20738 3.07849 17.0587C3.07849 24.91 9.44285 31.2744 17.2942 31.2744C25.1455 31.2744 31.5099 24.91 31.5099 17.0587C31.5099 9.20738 25.1455 2.84302 17.2942 2.84302Z" fill="#1E5A64"/>
<path d="M19.2182 20.8268H22.8973L23.4751 17.0895H19.2182V15.0467C19.2182 13.4943 19.7257 12.1175 21.1779 12.1175H23.5114V8.85645C23.1012 8.80101 22.2341 8.68018 20.5957 8.68018C17.174 8.68018 15.1682 10.487 15.1682 14.6039V17.0902H11.6505V20.8275H15.1675V31.0997C15.864 31.2035 16.5698 31.2746 17.2941 31.2746C17.9488 31.2746 18.5878 31.2149 19.2182 31.1296V20.8268Z" fill="white"/>
</svg>
