<svg width="35" height="35" viewBox="0 0 35 35" fill="none" xmlns="http://www.w3.org/2000/svg">
<path d="M17.1766 3.41174C9.64001 3.41174 3.52954 9.52221 3.52954 17.0588C3.52954 23.4536 7.93299 28.8044 13.8695 30.2851C13.8058 30.1008 13.7648 29.887 13.7648 29.6221V27.2895C13.211 27.2895 12.283 27.2895 12.0499 27.2895C11.1162 27.2895 10.286 26.8881 9.88338 26.1421C9.43644 25.313 9.35911 24.045 8.25142 23.2694C7.92276 23.0112 8.17295 22.7166 8.55166 22.7564C9.25107 22.9543 9.83107 23.4343 10.377 24.1462C10.9206 24.8592 11.1764 25.0207 12.192 25.0207C12.6844 25.0207 13.4214 24.9923 14.1151 24.8831C14.4881 23.9358 15.133 23.0635 15.9211 22.6518C11.3766 22.1844 9.20785 19.9235 9.20785 16.8541C9.20785 15.5326 9.7708 14.2543 10.7272 13.1774C10.4133 12.1083 10.0187 9.92821 10.8478 9.09802C12.8926 9.09802 14.1288 10.4241 14.4256 10.7823C15.4446 10.4332 16.5636 10.2353 17.7395 10.2353C18.9177 10.2353 20.0413 10.4332 21.0626 10.7846C21.356 10.4286 22.5933 9.09802 24.6427 9.09802C25.4751 9.92935 25.076 12.1186 24.7587 13.1853C25.7094 14.26 26.269 15.5349 26.269 16.8541C26.269 19.9213 24.1036 22.181 19.566 22.6507C20.8147 23.3023 21.7256 25.1333 21.7256 26.5128V29.6221C21.7256 29.7403 21.6995 29.8256 21.6858 29.9268C27.0036 28.0629 30.8237 23.0135 30.8237 17.0588C30.8237 9.52221 24.7132 3.41174 17.1766 3.41174Z" fill="#1E5A64"/>
</svg>
