<svg width="35" height="35" viewBox="0 0 35 35" fill="none" xmlns="http://www.w3.org/2000/svg">
<path d="M29.8529 26.299C29.8529 28.2621 28.2621 29.8529 26.299 29.8529H7.81857C5.85609 29.8529 4.26465 28.2621 4.26465 26.299V7.81857C4.26465 5.85538 5.85609 4.26465 7.81857 4.26465H26.299C28.2621 4.26465 29.8529 5.85538 29.8529 7.81857V26.299Z" fill="#1E5A64"/>
<path opacity="0.05" d="M21.3235 26.299V19.1208C21.3235 17.9203 20.7414 17.2031 19.7655 17.2031C19.1862 17.2031 18.7604 17.5293 18.501 18.1726C18.4889 18.2181 18.4718 18.4036 18.4789 18.9644L18.4804 26.299H13.5049V12.7941H18.4804V13.5482C19.2068 13.0471 20.0974 12.7941 21.1373 12.7941C24.3692 12.7941 26.2983 14.9926 26.2983 18.6751L26.299 26.299H21.3235ZM7.8186 26.299V12.7941H10.2758C8.85208 12.7941 7.8186 11.7478 7.8186 10.3056C7.8186 8.86488 8.86914 7.8186 10.3163 7.8186C11.7464 7.8186 12.765 8.83574 12.7941 10.2914C12.7941 11.7443 11.7428 12.7941 10.2957 12.7941H12.7941V26.299H7.8186Z" fill="#1E5A64"/>
<path opacity="0.07" d="M21.6787 25.9436V19.1207C21.6787 17.7184 20.9459 16.8476 19.7653 16.8476C18.8448 16.8476 18.3899 17.4959 18.171 18.0396C18.1127 18.1811 18.1205 18.7426 18.1234 18.9821L18.1248 25.9436H13.8601V13.1494H18.1248V14.3137C18.6899 13.7287 19.5997 13.1494 21.1371 13.1494C24.1459 13.1494 25.9427 15.215 25.9427 18.6751L25.9434 25.9436H21.6787ZM8.17383 25.9436V13.1494H12.4385V25.9436H8.17383ZM10.2756 12.4387C9.05804 12.4387 8.17383 11.5416 8.17383 10.3056C8.17383 9.07025 9.0751 8.17395 10.3161 8.17395C11.5415 8.17395 12.4137 9.0475 12.4385 10.2985C12.4385 11.5416 11.5373 12.4387 10.2955 12.4387H10.2756Z" fill="#1E5A64"/>
<path d="M8.5293 13.5049H12.0832V25.5882H8.5293V13.5049ZM10.2956 12.0833H10.2757C9.2152 12.0833 8.5293 11.2929 8.5293 10.3057C8.5293 9.29707 9.23653 8.52942 10.3162 8.52942C11.3973 8.52942 12.0633 9.29707 12.0832 10.3057C12.0832 11.2922 11.3973 12.0833 10.2956 12.0833ZM25.5881 25.5882H22.0342V19.1208C22.0342 17.5585 21.1635 16.4923 19.7654 16.4923C18.6985 16.4923 18.1213 17.2116 17.8413 17.9068C17.7389 18.1556 17.7695 18.8436 17.7695 19.1912V25.5882H14.2156V13.5049H17.7695V15.3643C18.282 14.5711 19.0844 13.5049 21.1372 13.5049C23.6804 13.5049 25.5874 15.1042 25.5874 18.6752L25.5881 25.5882Z" fill="white"/>
</svg>
